{
    "asset" : {
        "generator" : "Khronos glTF Blender I/O v1.2.75",
        "version" : "2.0"
    },
    "scene" : 0,
    "scenes" : [
        {
            "name" : "Scene",
            "nodes" : [
                0,
                1,
                2
            ]
        }
    ],
    "nodes" : [
        {
            "mesh" : 0,
            "name" : "ig1.001",
            "scale" : [
                1.7761085033416748,
                1.7761085033416748,
                0.272249698638916
            ],
            "translation" : [
                5.0238518714904785,
                1.9254887104034424,
                -1.8252711296081543
            ]
        },
        {
            "mesh" : 1,
            "name" : "ig2.001",
            "scale" : [
                1.2600525617599487,
                1.2600525617599487,
                0.2630343735218048
            ],
            "translation" : [
                5.0238518714904785,
                1.9254884719848633,
                -1.8252711296081543
            ]
        },
        {
            "mesh" : 2,
            "name" : "ig3.001",
            "rotation" : [
                0.7071068286895752,
                0,
                0,
                0.7071067094802856
            ],
            "scale" : [
                0.5853293538093567,
                0.2644038498401642,
                0.5853293538093567
            ],
            "translation" : [
                5.004950523376465,
                1.8129632472991943,
                -1.8252711296081543
            ]
        }
    ],
    "animations" : [
        {
            "channels" : [
                {
                    "sampler" : 0,
                    "target" : {
                        "node" : 0,
                        "path" : "rotation"
                    }
                }
            ],
            "name" : "ig1Action.001",
            "samplers" : [
                {
                    "input" : 12,
                    "interpolation" : "LINEAR",
                    "output" : 13
                }
            ]
        },
        {
            "channels" : [
                {
                    "sampler" : 0,
                    "target" : {
                        "node" : 1,
                        "path" : "rotation"
                    }
                },
                {
                    "sampler" : 1,
                    "target" : {
                        "node" : 1,
                        "path" : "scale"
                    }
                }
            ],
            "name" : "ig2Action.002",
            "samplers" : [
                {
                    "input" : 14,
                    "interpolation" : "LINEAR",
                    "output" : 15
                },
                {
                    "input" : 16,
                    "interpolation" : "LINEAR",
                    "output" : 17
                }
            ]
        },
        {
            "channels" : [
                {
                    "sampler" : 0,
                    "target" : {
                        "node" : 2,
                        "path" : "scale"
                    }
                }
            ],
            "name" : "ig3Action",
            "samplers" : [
                {
                    "input" : 14,
                    "interpolation" : "LINEAR",
                    "output" : 18
                }
            ]
        }
    ],
    "materials" : [
        {
            "doubleSided" : true,
            "name" : "alpha",
            "pbrMetallicRoughness" : {}
        },
        {
            "doubleSided" : true,
            "emissiveFactor" : [
                0,
                0,
                0
            ],
            "name" : "alpha.001",
            "pbrMetallicRoughness" : {
                "baseColorFactor" : [
                    0.800000011920929,
                    0.800000011920929,
                    0.800000011920929,
                    1
                ],
                "metallicFactor" : 0,
                "roughnessFactor" : 0.5
            }
        }
    ],
    "meshes" : [
        {
            "name" : "ig.001",
            "primitives" : [
                {
                    "attributes" : {
                        "POSITION" : 0,
                        "NORMAL" : 1,
                        "TEXCOORD_0" : 2
                    },
                    "indices" : 3,
                    "material" : 0
                }
            ]
        },
        {
            "name" : "ig.003",
            "primitives" : [
                {
                    "attributes" : {
                        "POSITION" : 4,
                        "NORMAL" : 5,
                        "TEXCOORD_0" : 6
                    },
                    "indices" : 7,
                    "material" : 0
                }
            ]
        },
        {
            "name" : "Cylinder.001",
            "primitives" : [
                {
                    "attributes" : {
                        "POSITION" : 8,
                        "NORMAL" : 9,
                        "TEXCOORD_0" : 10
                    },
                    "indices" : 11,
                    "material" : 1
                }
            ]
        }
    ],
    "accessors" : [
        {
            "bufferView" : 0,
            "componentType" : 5126,
            "count" : 692,
            "max" : [
                1,
                1,
                1.000000238418579
            ],
            "min" : [
                -1,
                -1,
                -1.000000238418579
            ],
            "type" : "VEC3"
        },
        {
            "bufferView" : 1,
            "componentType" : 5126,
            "count" : 692,
            "type" : "VEC3"
        },
        {
            "bufferView" : 2,
            "componentType" : 5126,
            "count" : 692,
            "type" : "VEC2"
        },
        {
            "bufferView" : 3,
            "componentType" : 5123,
            "count" : 1380,
            "type" : "SCALAR"
        },
        {
            "bufferView" : 4,
            "componentType" : 5126,
            "count" : 840,
            "max" : [
                1,
                1,
                1.000000238418579
            ],
            "min" : [
                -1,
                -1,
                -1.0000001192092896
            ],
            "type" : "VEC3"
        },
        {
            "bufferView" : 5,
            "componentType" : 5126,
            "count" : 840,
            "type" : "VEC3"
        },
        {
            "bufferView" : 6,
            "componentType" : 5126,
            "count" : 840,
            "type" : "VEC2"
        },
        {
            "bufferView" : 7,
            "componentType" : 5123,
            "count" : 1668,
            "type" : "SCALAR"
        },
        {
            "bufferView" : 8,
            "componentType" : 5126,
            "count" : 240,
            "max" : [
                1,
                1,
                1
            ],
            "min" : [
                -1,
                -1,
                -1
            ],
            "type" : "VEC3"
        },
        {
            "bufferView" : 9,
            "componentType" : 5126,
            "count" : 240,
            "type" : "VEC3"
        },
        {
            "bufferView" : 10,
            "componentType" : 5126,
            "count" : 240,
            "type" : "VEC2"
        },
        {
            "bufferView" : 11,
            "componentType" : 5123,
            "count" : 468,
            "type" : "SCALAR"
        },
        {
            "bufferView" : 12,
            "componentType" : 5126,
            "count" : 340,
            "max" : [
                14.166666666666666
            ],
            "min" : [
                0.041666666666666664
            ],
            "type" : "SCALAR"
        },
        {
            "bufferView" : 13,
            "componentType" : 5126,
            "count" : 340,
            "type" : "VEC4"
        },
        {
            "bufferView" : 14,
            "componentType" : 5126,
            "count" : 320,
            "max" : [
                13.333333333333334
            ],
            "min" : [
                0.041666666666666664
            ],
            "type" : "SCALAR"
        },
        {
            "bufferView" : 15,
            "componentType" : 5126,
            "count" : 320,
            "type" : "VEC4"
        },
        {
            "bufferView" : 16,
            "componentType" : 5126,
            "count" : 11,
            "max" : [
                5.416666666666667
            ],
            "min" : [
                5
            ],
            "type" : "SCALAR"
        },
        {
            "bufferView" : 17,
            "componentType" : 5126,
            "count" : 11,
            "type" : "VEC3"
        },
        {
            "bufferView" : 18,
            "componentType" : 5126,
            "count" : 320,
            "type" : "VEC3"
        }
    ],
    "bufferViews" : [
        {
            "buffer" : 0,
            "byteLength" : 8304,
            "byteOffset" : 0
        },
        {
            "buffer" : 0,
            "byteLength" : 8304,
            "byteOffset" : 8304
        },
        {
            "buffer" : 0,
            "byteLength" : 5536,
            "byteOffset" : 16608
        },
        {
            "buffer" : 0,
            "byteLength" : 2760,
            "byteOffset" : 22144
        },
        {
            "buffer" : 0,
            "byteLength" : 10080,
            "byteOffset" : 24904
        },
        {
            "buffer" : 0,
            "byteLength" : 10080,
            "byteOffset" : 34984
        },
        {
            "buffer" : 0,
            "byteLength" : 6720,
            "byteOffset" : 45064
        },
        {
            "buffer" : 0,
            "byteLength" : 3336,
            "byteOffset" : 51784
        },
        {
            "buffer" : 0,
            "byteLength" : 2880,
            "byteOffset" : 55120
        },
        {
            "buffer" : 0,
            "byteLength" : 2880,
            "byteOffset" : 58000
        },
        {
            "buffer" : 0,
            "byteLength" : 1920,
            "byteOffset" : 60880
        },
        {
            "buffer" : 0,
            "byteLength" : 936,
            "byteOffset" : 62800
        },
        {
            "buffer" : 0,
            "byteLength" : 1360,
            "byteOffset" : 63736
        },
        {
            "buffer" : 0,
            "byteLength" : 5440,
            "byteOffset" : 65096
        },
        {
            "buffer" : 0,
            "byteLength" : 1280,
            "byteOffset" : 70536
        },
        {
            "buffer" : 0,
            "byteLength" : 5120,
            "byteOffset" : 71816
        },
        {
            "buffer" : 0,
            "byteLength" : 44,
            "byteOffset" : 76936
        },
        {
            "buffer" : 0,
            "byteLength" : 132,
            "byteOffset" : 76980
        },
        {
            "buffer" : 0,
            "byteLength" : 3840,
            "byteOffset" : 77112
        }
    ],
    "buffers" : [
        {
            "byteLength" : 80952,
            "uri" : "data:application/octet-stream;base64,"
        }
    ]
}
